<svg xmlns="http://www.w3.org/2000/svg" xmlns:xlink="http://www.w3.org/1999/xlink" width="0" height="0" style="display:none;"><symbol id="thermometer-outline" viewBox="0 0 24 24"><g data-name="Layer 2"><g data-name="thermometer"><rect width="24" height="24" opacity="0"></rect><path d="M12 22a5 5 0 0 1-3-9V5a3 3 0 0 1 3-3 3 3 0 0 1 3 3v8a5 5 0 0 1-3 9zm0-18a1 1 0 0 0-1 1v8.54a1 1 0 0 1-.5.87A3 3 0 0 0 9 17a3 3 0 0 0 6 0 3 3 0 0 0-1.5-2.59 1 1 0 0 1-.5-.87V5a.93.93 0 0 0-.29-.69A1 1 0 0 0 12 4z"></path></g></g></symbol><symbol id="film-outline" viewBox="0 0 24 24"><g data-name="Layer 2"><g data-name="film"><rect width="24" height="24" opacity="0"></rect><path d="M18.26 3H5.74A2.74 2.74 0 0 0 3 5.74v12.52A2.74 2.74 0 0 0 5.74 21h12.52A2.74 2.74 0 0 0 21 18.26V5.74A2.74 2.74 0 0 0 18.26 3zM7 11H5V9h2zm-2 2h2v2H5zm4-8h6v14H9zm10 6h-2V9h2zm-2 2h2v2h-2zm2-7.26V7h-2V5h1.26a.74.74 0 0 1 .74.74zM5.74 5H7v2H5V5.74A.74.74 0 0 1 5.74 5zM5 18.26V17h2v2H5.74a.74.74 0 0 1-.74-.74zm14 0a.74.74 0 0 1-.74.74H17v-2h2z"></path></g></g></symbol><symbol id="alert-circle-outline" viewBox="0 0 24 24"><g data-name="Layer 2"><g data-name="alert-circle"><rect width="24" height="24" opacity="0"></rect><path d="M12 2a10 10 0 1 0 10 10A10 10 0 0 0 12 2zm0 18a8 8 0 1 1 8-8 8 8 0 0 1-8 8z"></path><path d="M12 7a1 1 0 0 0-1 1v5a1 1 0 0 0 2 0V8a1 1 0 0 0-1-1z"></path><circle cx="12" cy="16" r="1"></circle></g></g></symbol><symbol id="link-2-outline" viewBox="0 0 24 24"><g data-name="Layer 2"><g data-name="link-2"><rect width="24" height="24" opacity="0"></rect><path d="M13.29 9.29l-4 4a1 1 0 0 0 0 1.42 1 1 0 0 0 1.42 0l4-4a1 1 0 0 0-1.42-1.42z"></path><path d="M12.28 17.4L11 18.67a4.2 4.2 0 0 1-5.58.4 4 4 0 0 1-.27-5.93l1.42-1.43a1 1 0 0 0 0-1.42 1 1 0 0 0-1.42 0l-1.27 1.28a6.15 6.15 0 0 0-.67 8.07 6.06 6.06 0 0 0 9.07.6l1.42-1.42a1 1 0 0 0-1.42-1.42z"></path><path d="M19.66 3.22a6.18 6.18 0 0 0-8.13.68L10.45 5a1.09 1.09 0 0 0-.17 1.61 1 1 0 0 0 1.42 0L13 5.3a4.17 4.17 0 0 1 5.57-.4 4 4 0 0 1 .27 5.95l-1.42 1.43a1 1 0 0 0 0 1.42 1 1 0 0 0 1.42 0l1.42-1.42a6.06 6.06 0 0 0-.6-9.06z"></path></g></g></symbol><symbol id="chevron-down-outline" viewBox="0 0 24 24"><g data-name="Layer 2"><g data-name="chevron-down"><rect width="24" height="24" opacity="0"></rect><path d="M12 15.5a1 1 0 0 1-.71-.29l-4-4a1 1 0 1 1 1.42-1.42L12 13.1l3.3-3.18a1 1 0 1 1 1.38 1.44l-4 3.86a1 1 0 0 1-.68.28z"></path></g></g></symbol><symbol id="umbrella-outline" viewBox="0 0 24 24"><g data-name="Layer 2"><g data-name="umbrella"><rect width="24" height="24" opacity="0"></rect><path d="M12 2A10 10 0 0 0 2 12a1 1 0 0 0 1 1h8v6a3 3 0 0 0 6 0 1 1 0 0 0-2 0 1 1 0 0 1-2 0v-6h8a1 1 0 0 0 1-1A10 10 0 0 0 12 2zm-7.94 9a8 8 0 0 1 15.88 0z"></path></g></g></symbol><symbol id="chevron-up-outline" viewBox="0 0 24 24"><g data-name="Layer 2"><g data-name="chevron-up"><rect width="24" height="24" transform="rotate(180 12 12)" opacity="0"></rect><path d="M16 14.5a1 1 0 0 1-.71-.29L12 10.9l-3.3 3.18a1 1 0 0 1-1.41 0 1 1 0 0 1 0-1.42l4-3.86a1 1 0 0 1 1.4 0l4 4a1 1 0 0 1 0 1.42 1 1 0 0 1-.69.28z"></path></g></g></symbol><symbol id="checkmark-outline" viewBox="0 0 24 24"><g data-name="Layer 2"><g data-name="checkmark"><rect width="24" height="24" opacity="0"></rect><path d="M9.86 18a1 1 0 0 1-.73-.32l-4.86-5.17a1 1 0 1 1 1.46-1.37l4.12 4.39 8.41-9.2a1 1 0 1 1 1.48 1.34l-9.14 10a1 1 0 0 1-.73.33z"></path></g></g></symbol><symbol id="grid-outline" viewBox="0 0 24 24"><g data-name="Layer 2"><g data-name="grid"><rect width="24" height="24" opacity="0"></rect><path d="M9 3H5a2 2 0 0 0-2 2v4a2 2 0 0 0 2 2h4a2 2 0 0 0 2-2V5a2 2 0 0 0-2-2zM5 9V5h4v4z"></path><path d="M19 3h-4a2 2 0 0 0-2 2v4a2 2 0 0 0 2 2h4a2 2 0 0 0 2-2V5a2 2 0 0 0-2-2zm-4 6V5h4v4z"></path><path d="M9 13H5a2 2 0 0 0-2 2v4a2 2 0 0 0 2 2h4a2 2 0 0 0 2-2v-4a2 2 0 0 0-2-2zm-4 6v-4h4v4z"></path><path d="M19 13h-4a2 2 0 0 0-2 2v4a2 2 0 0 0 2 2h4a2 2 0 0 0 2-2v-4a2 2 0 0 0-2-2zm-4 6v-4h4v4z"></path></g></g></symbol><symbol id="bulb-outline" viewBox="0 0 24 24"><g data-name="Layer 2"><g data-name="bulb"><rect width="24" height="24" transform="rotate(180 12 12)" opacity="0"></rect><path d="M12 7a5 5 0 0 0-3 9v4a2 2 0 0 0 2 2h2a2 2 0 0 0 2-2v-4a5 5 0 0 0-3-9zm1.5 7.59a1 1 0 0 0-.5.87V20h-2v-4.54a1 1 0 0 0-.5-.87A3 3 0 0 1 9 12a3 3 0 0 1 6 0 3 3 0 0 1-1.5 2.59z"></path><path d="M12 6a1 1 0 0 0 1-1V3a1 1 0 0 0-2 0v2a1 1 0 0 0 1 1z"></path><path d="M21 11h-2a1 1 0 0 0 0 2h2a1 1 0 0 0 0-2z"></path><path d="M5 11H3a1 1 0 0 0 0 2h2a1 1 0 0 0 0-2z"></path><path d="M7.66 6.42L6.22 5a1 1 0 0 0-1.39 1.47l1.44 1.39a1 1 0 0 0 .73.28 1 1 0 0 0 .72-.31 1 1 0 0 0-.06-1.41z"></path><path d="M19.19 5.05a1 1 0 0 0-1.41 0l-1.44 1.37a1 1 0 0 0 0 1.41 1 1 0 0 0 .72.31 1 1 0 0 0 .69-.28l1.44-1.39a1 1 0 0 0 0-1.42z"></path></g></g></symbol><symbol id="activity-outline" viewBox="0 0 24 24"><g data-name="Layer 2"><g data-name="activity"><rect width="24" height="24" transform="rotate(90 12 12)" opacity="0"></rect><path d="M14.33 20h-.21a2 2 0 0 1-1.76-1.58L9.68 6l-2.76 6.4A1 1 0 0 1 6 13H3a1 1 0 0 1 0-2h2.34l2.51-5.79a2 2 0 0 1 3.79.38L14.32 18l2.76-6.38A1 1 0 0 1 18 11h3a1 1 0 0 1 0 2h-2.34l-2.51 5.79A2 2 0 0 1 14.33 20z"></path></g></g></symbol><symbol id="shield-outline" viewBox="0 0 24 24"><g data-name="Layer 2"><g data-name="shield"><rect width="24" height="24" opacity="0"></rect><path d="M12 21.85a2 2 0 0 1-1-.25l-.3-.17A15.17 15.17 0 0 1 3 8.23v-.14a2 2 0 0 1 1-1.75l7-3.94a2 2 0 0 1 2 0l7 3.94a2 2 0 0 1 1 1.75v.14a15.17 15.17 0 0 1-7.72 13.2l-.3.17a2 2 0 0 1-.98.25zm0-17.7L5 8.09v.14a13.15 13.15 0 0 0 6.7 11.45l.3.17.3-.17A13.15 13.15 0 0 0 19 8.23v-.14z"></path></g></g></symbol><symbol id="question-mark-circle-outline" viewBox="0 0 24 24"><g data-name="Layer 2"><g data-name="menu-arrow-circle"><rect width="24" height="24" transform="rotate(180 12 12)" opacity="0"></rect><path d="M12 2a10 10 0 1 0 10 10A10 10 0 0 0 12 2zm0 18a8 8 0 1 1 8-8 8 8 0 0 1-8 8z"></path><path d="M12 6a3.5 3.5 0 0 0-3.5 3.5 1 1 0 0 0 2 0A1.5 1.5 0 1 1 12 11a1 1 0 0 0-1 1v2a1 1 0 0 0 2 0v-1.16A3.49 3.49 0 0 0 12 6z"></path><circle cx="12" cy="17" r="1"></circle></g></g></symbol></svg>